# File created by Blade
# Date/Time:  Wed Jan 21 18:40:15 2015
#---------------------------------------------------------
:version 1.10
:name HOM
:units
  mass 1.0
  length 1.000000
  angle deg
:documentation
     Acclaim Skeleton File
:root
   axis xyz
   order TX TY TZ RX RY RZ
   position 0.000000 0.000000 0.000000
   orientation 0 0 0
:bonedata
   begin
      id 1
      name RightUpLeg_dum
      direction -1.000000 0.000000 0.000000
      length 3.693983
      axis 0.0 0.0 0.0 xyz
   end
   begin
      id 2
      name LeftUpLeg_dum
      direction 1.000000 0.000000 0.000000
      length 3.693983
      axis 0.0 0.0 0.0 xyz
   end
   begin
      id 3
      name Spine_dum
      direction 0.000000 1.000000 0.000000
      length 2.392956
      axis 0.0 0.0 0.0 xyz
   end
   begin
      id 4
      name RightUpLeg
      direction 0.000000 -1.000000 0.000000
      length 15.795667
      axis 0.0 0.0 0.0 xyz
      dof rx ry rz
   end
   begin
      id 5
      name RightLeg
      direction 0.000000 -1.000000 0.000000
      length 14.766989
      axis 0.0 0.0 0.0 xyz
      dof rx ry rz
   end
   begin
      id 6
      name RightFoot
      direction 0.000000 -0.258819 0.965926
      length 4.962790
      axis 15.0 0.0 0.0 xyz
      dof rx ry rz
   end
   begin
      id 7
      name RightToeBase
      direction 0.000000 0.000000 1.000000
      length 2.952750
      axis 0.0 0.0 0.0 xyz
      dof rx ry rz
   end
   begin
      id 8
      name LeftUpLeg
      direction 0.000000 -1.000000 0.000000
      length 15.795667
      axis 0.0 0.0 0.0 xyz
      dof rx ry rz
   end
   begin
      id 9
      name LeftLeg
      direction 0.000000 -1.000000 0.000000
      length 14.766989
      axis 0.0 0.0 0.0 xyz
      dof rx ry rz
   end
   begin
      id 10
      name LeftFoot
      direction 0.000000 -0.258819 0.965926
      length 4.962790
      axis 15.0 0.0 0.0 xyz
      dof rx ry rz
   end
   begin
      id 11
      name LeftToeBase
      direction 0.000000 0.000000 1.000000
      length 2.952750
      axis 0.0 0.0 0.0 xyz
      dof rx ry rz
   end
   begin
      id 12
      name Spine
      direction 0.000000 1.000000 0.000000
      length 0.000000
      axis 0.0 0.0 0.0 xyz
      dof rx ry rz
   end
   begin
      id 13
      name Spine_dum1
      direction 0.000000 1.000000 0.000000
      length 13.207411
      axis 0.0 0.0 0.0 xyz
   end
   begin
      id 14
      name Spine_dum2
      direction 0.000000 1.000000 0.000000
      length 13.207411
      axis 0.0 0.0 0.0 xyz
   end
   begin
      id 15
      name Spine_dum3
      direction 0.000000 1.000000 0.000000
      length 19.250100
      axis 0.0 0.0 0.0 xyz
   end
   begin
      id 16
      name RightShoulder
      direction -1.000000 0.000000 0.000000
      length 8.140465
      axis 0.0 0.0 90.0 xyz
      dof rx ry rz
   end
   begin
      id 17
      name RightArm
      direction -1.000000 0.000000 0.000000
      length 10.649840
      axis 0.0 0.0 90.0 xyz
      dof rx ry rz
   end
   begin
      id 18
      name RightForeArm
      direction -1.000000 0.000000 0.000000
      length 8.304624
      axis 0.0 0.0 90.0 xyz
      dof ry rz rx
   end
   begin
      id 19
      name RightHand
      direction -1.000000 0.000000 0.000000
      length 0.000000
      axis 0.0 0.0 90.0 xyz
      dof rx ry rz
   end
   begin
      id 20
      name RightHand_dum1
      direction -1.000000 0.000000 0.000000
      length 3.937000
      axis 0.0 0.0 90.0 xyz
   end
   begin
      id 21
      name RightHand_dum2
      direction 0.000000 0.000000 0.000000
      length 0.000000
      axis 0.0 0.0 90.0 xyz
   end
   begin
      id 22
      name RightHandThumb1
      direction 0.000000 0.000000 1.000000
      length 3.937000
      axis 0.0 0.0 90.0 xyz
      dof rx rz ry
   end
   begin
      id 23
      name LeftShoulder
      direction 1.000000 0.000000 0.000000
      length 8.140465
      axis 0.0 0.0 -90.0 xyz
      dof rx ry rz
   end
   begin
      id 24
      name LeftArm
      direction 1.000000 0.000000 0.000000
      length 10.649840
      axis 0.0 0.0 -90.0 xyz
      dof rx ry rz
   end
   begin
      id 25
      name LeftForeArm
      direction 1.000000 0.000000 0.000000
      length 8.304624
      axis 0.0 0.0 -90.0 xyz
      dof ry rz rx
   end
   begin
      id 26
      name LeftHand
      direction 1.000000 0.000000 0.000000
      length 0.000000
      axis 0.0 0.0 -90.0 xyz
      dof rx ry rz
   end
   begin
      id 27
      name LeftHand_dum1
      direction 1.000000 0.000000 0.000000
      length 3.937000
      axis 0.0 0.0 -90.0 xyz
   end
   begin
      id 28
      name LeftHand_dum2
      direction 0.000000 0.000000 0.000000
      length 0.000000
      axis 0.0 0.0 -90.0 xyz
   end
   begin
      id 29
      name LeftHandThumb1
      direction 0.000000 0.000000 1.000000
      length 3.937000
      axis 0.0 0.0 -90.0 xyz
      dof rx rz ry
   end
   begin
      id 30
      name Head
      direction 0.000000 1.000000 0.000000
      length 4.527550
      axis 0.0 0.0 0.0 xyz
      dof rx ry rz
   end
:hierarchy
   begin
      root RightUpLeg_dum LeftUpLeg_dum Spine_dum
      RightUpLeg_dum RightUpLeg
      LeftUpLeg_dum LeftUpLeg
      Spine_dum Spine
      RightUpLeg RightLeg
      RightLeg RightFoot
      RightFoot RightToeBase
      LeftUpLeg LeftLeg
      LeftLeg LeftFoot
      LeftFoot LeftToeBase
      Spine Spine_dum1 Spine_dum2 Spine_dum3
      Spine_dum1 RightShoulder
      Spine_dum2 LeftShoulder
      Spine_dum3 Head
      RightShoulder RightArm
      RightArm RightForeArm
      RightForeArm RightHand
      RightHand RightHand_dum1 RightHand_dum2
      RightHand_dum2 RightHandThumb1
      LeftShoulder LeftArm
      LeftArm LeftForeArm
      LeftForeArm LeftHand
      LeftHand LeftHand_dum1 LeftHand_dum2
      LeftHand_dum2 LeftHandThumb1
   end

# File created by Blade
# Date/Time:  Wed Jan 21 18:40:08 2015
# Frame Rate: 120.000 fps
#------------------------------------------------------
:FULLY-SPECIFIED
:DEGREES
553
root 0.609307 29.565160 -7.208107 56.199287 2.370696 10.234595
RightUpLeg -56.018638 -43.737327 -0.935788
RightLeg -6.600184 -0.000000 0.000000
RightFoot 2.092247 0.032810 45.365018
RightToeBase 17.690364 -0.000000 -0.000000
LeftUpLeg -57.278688 17.689385 -4.263794
LeftLeg -2.263146 -0.000000 0.000000
LeftFoot 1.844666 0.625723 -21.131850
LeftToeBase 8.722989 -0.000000 -0.000000
Spine -41.350359 11.058623 5.734228
RightShoulder -19.173178 16.434364 -37.788644
RightArm 2.516699 -10.835928 51.120097
RightForeArm 5.718858 -0.000000 -1.951949
RightHand 12.720457 -0.000000 -2.421224
RightHandThumb1 -24.326973 -0.000000 -32.862282
LeftShoulder -13.688378 5.922828 43.259396
LeftArm 16.283147 -15.452013 -50.190424
LeftForeArm 10.019149 -0.000000 -2.804693
LeftHand -22.309306 -0.000000 3.841035
LeftHandThumb1 -26.253704 0.000000 33.147579
Head -11.989761 -9.023420 16.783588
554
root 0.615920 29.563923 -7.220112 56.331608 2.244161 10.299921
RightUpLeg -56.207088 -43.712982 -0.992155
RightLeg -6.605395 -0.000000 0.000000
RightFoot 2.072008 -0.008284 45.369316
RightToeBase 17.762301 -0.000000 -0.000000
LeftUpLeg -57.386263 17.638065 -4.368324
LeftLeg -2.282764 -0.000000 0.000000
LeftFoot 1.840479 0.697288 -21.162800
LeftToeBase 8.722698 -0.000000 -0.000000
Spine -41.290936 11.137318 5.797706
RightShoulder -19.164681 16.506339 -37.729586
RightArm 2.502424 -10.786596 51.155981
RightForeArm 5.688275 -0.000000 -1.957472
RightHand 12.976676 0.000000 -2.465060
RightHandThumb1 -24.326973 -0.000000 -32.862282
LeftShoulder -13.770837 6.021837 43.288321
LeftArm 16.261893 -15.608868 -50.290451
LeftForeArm 9.783963 -0.000000 -2.760789
LeftHand -22.326159 -0.000000 4.103027
LeftHandThumb1 -26.253704 0.000000 33.147579
Head -12.166515 -8.976275 16.873467
555
root 0.622968 29.562508 -7.229928 56.455195 2.140454 10.361184
RightUpLeg -56.385739 -43.713279 -1.011174
RightLeg -6.633124 -0.000000 0.000000
RightFoot 2.098385 -0.037243 45.378940
RightToeBase 17.795282 -0.000000 -0.000000
LeftUpLeg -57.480873 17.572939 -4.447280
LeftLeg -2.305192 -0.000000 0.000000
LeftFoot 1.818743 0.787953 -21.182380
LeftToeBase 8.724008 -0.000000 -0.000000
Spine -41.237922 11.242110 5.863040
RightShoulder -19.202885 16.597383 -37.703098
RightArm 2.444310 -10.695664 51.187459
RightForeArm 5.575516 -0.000000 -1.843244
RightHand 12.680162 -0.000000 -2.542535
RightHandThumb1 -24.326973 -0.000000 -32.862282
LeftShoulder -13.767517 6.006218 43.340846
LeftArm 16.081345 -15.785654 -50.382545
LeftForeArm 9.696830 -0.000000 -2.613617
LeftHand -22.460384 -0.000000 4.477055
LeftHandThumb1 -26.253704 0.000000 33.147579
Head -12.333512 -8.919584 16.963369
556
root 0.630271 29.561382 -7.239802 56.583336 2.046496 10.428957
RightUpLeg -56.618055 -43.747685 -0.972709
RightLeg -6.628560 -0.000000 0.000000
RightFoot 2.151497 -0.004771 45.415941
RightToeBase 17.801920 -0.000000 -0.000000
LeftUpLeg -57.583374 17.505407 -4.535851
LeftLeg -2.330651 -0.000000 0.000000
LeftFoot 1.827965 0.867574 -21.191618
LeftToeBase 8.676115 -0.000000 -0.000000
Spine -41.180053 11.324589 5.942676
RightShoulder -19.234797 16.664882 -37.662689
RightArm 2.435860 -10.572941 51.207167
RightForeArm 5.491335 -0.000000 -1.853580
RightHand 12.787449 -0.000000 -2.629774
RightHandThumb1 -24.326973 -0.000000 -32.862282
LeftShoulder -13.818348 5.957571 43.391380
LeftArm 15.912107 -15.906517 -50.460389
LeftForeArm 9.687847 -0.000000 -2.477247
LeftHand -22.550384 -0.000000 4.552877
LeftHandThumb1 -26.253704 0.000000 33.147579
Head -12.515610 -8.881583 17.061972
557
root 0.637036 29.560106 -7.249659 56.697943 1.965002 10.484500
RightUpLeg -56.899139 -43.814525 -0.835630
RightLeg -6.623402 -0.000000 0.000000
RightFoot 2.256273 0.071071 45.386921
RightToeBase 17.793331 -0.000000 -0.000000
LeftUpLeg -57.664660 17.429908 -4.579994
LeftLeg -2.357217 -0.000000 0.000000
LeftFoot 1.797491 0.965679 -21.239295
LeftToeBase 8.749135 -0.000000 -0.000000
Spine -41.106278 11.392483 6.058088
RightShoulder -19.222890 16.755938 -37.618697
RightArm 2.386315 -10.582538 51.225695
RightForeArm 5.529992 0.000000 -1.803039
RightHand 12.759146 -0.000000 -2.833068
RightHandThumb1 -24.326973 -0.000000 -32.862282
LeftShoulder -13.884528 6.087478 43.405789
LeftArm 15.863014 -16.079490 -50.588202
LeftForeArm 9.804322 0.000000 -2.361267
LeftHand -22.545323 0.000000 4.986343
LeftHandThumb1 -26.253704 0.000000 33.147579
Head -12.683694 -8.763552 17.147186
558
root 0.645105 29.558299 -7.255980 56.794692 1.884474 10.554177
RightUpLeg -57.068973 -43.853276 -0.830541
RightLeg -6.630701 -0.000000 0.000000
RightFoot 2.315560 0.097995 45.496638
RightToeBase 17.740269 -0.000000 -0.000000
LeftUpLeg -57.729519 17.368250 -4.673495
LeftLeg -2.389403 -0.000000 0.000000
LeftFoot 1.824361 0.997112 -21.275125
LeftToeBase 8.620713 -0.000000 -0.000000
Spine -41.022019 11.494215 6.122537
RightShoulder -19.290196 16.824858 -37.570179
RightArm 2.360923 -10.616300 51.191396
RightForeArm 5.553118 -0.000000 -1.803719
RightHand 12.749866 -0.000000 -2.922872
RightHandThumb1 -24.326973 -0.000000 -32.862282
LeftShoulder -13.901122 6.069586 43.467434
LeftArm 15.687416 -16.187602 -50.689817
LeftForeArm 9.964939 -0.000000 -2.159349
LeftHand -22.596808 -0.000000 5.193934
LeftHandThumb1 -26.253704 0.000000 33.147579
Head -12.895614 -8.808647 17.263635
559
root 0.653211 29.557409 -7.264105 56.907697 1.816291 10.626698
RightUpLeg -57.269690 -43.898046 -0.803252
RightLeg -6.619353 -0.000000 0.000000
RightFoot 2.350037 0.103485 45.502579
RightToeBase 17.664653 -0.000000 -0.000000
LeftUpLeg -57.816463 17.294871 -4.760318
LeftLeg -2.428109 -0.000000 0.000000
LeftFoot 1.826275 1.064116 -21.290600
LeftToeBase 8.665515 -0.000000 -0.000000
Spine -40.944525 11.560355 6.229365
RightShoulder -19.294440 16.895899 -37.538427
RightArm 2.310565 -10.602442 51.200726
RightForeArm 5.498849 -0.000000 -1.790127
RightHand 12.600534 -0.000000 -3.037634
RightHandThumb1 -24.326973 -0.000000 -32.862282
LeftShoulder -14.015742 6.172092 43.479507
LeftArm 15.675665 -16.188852 -50.770116
LeftForeArm 10.069565 -0.000000 -2.009340
LeftHand -22.719118 -0.000000 5.374046
LeftHandThumb1 -26.253704 0.000000 33.147579
Head -13.124915 -8.756480 17.372148
560
root 0.661859 29.556379 -7.272104 57.019257 1.758273 10.698850
RightUpLeg -57.435598 -43.930300 -0.811481
RightLeg -6.608960 -0.000000 0.000000
RightFoot 2.323593 0.065105 45.417049
RightToeBase 17.754989 -0.000000 -0.000000
LeftUpLeg -57.884292 17.194196 -4.813287
LeftLeg -2.480899 -0.000000 0.000000
LeftFoot 1.878017 1.146009 -21.123937
LeftToeBase 8.445058 -0.000000 -0.000000
Spine -40.866196 11.661796 6.315756
RightShoulder -19.363303 16.925280 -37.487958
RightArm 2.329283 -10.656301 51.152642
RightForeArm 5.625833 0.000000 -1.848891
RightHand 12.725240 0.000000 -3.208952
RightHandThumb1 -24.326973 -0.000000 -32.862282
LeftShoulder -14.046855 6.197195 43.513896
LeftArm 15.537519 -16.279036 -50.872862
LeftForeArm 10.243221 -0.000000 -1.789102
LeftHand -22.795274 -0.000000 5.704308
LeftHandThumb1 -26.253704 0.000000 33.147579
Head -13.386565 -8.770198 17.483473
561
root 0.671382 29.555664 -7.281818 57.144867 1.711116 10.767307
RightUpLeg -57.651294 -43.973789 -0.777207
RightLeg -6.568923 -0.000000 0.000000
RightFoot 2.322858 0.060510 45.445222
RightToeBase 17.770810 -0.000000 -0.000000
LeftUpLeg -57.982807 17.101843 -4.876445
LeftLeg -2.525437 -0.000000 0.000000
LeftFoot 1.830862 1.235482 -21.297124
LeftToeBase 8.716965 -0.000000 -0.000000
Spine -40.808787 11.777550 6.416074
RightShoulder -19.387582 16.917600 -37.463663
RightArm 2.323370 -10.583429 51.117211
RightForeArm 5.441826 -0.000000 -1.917511
RightHand 12.781597 -0.000000 -3.212586
RightHandThumb1 -24.326973 -0.000000 -32.862282
LeftShoulder -14.069959 6.236540 43.528046
LeftArm 15.441445 -16.251259 -50.932989
LeftForeArm 10.325974 -0.000000 -1.644944
LeftHand -22.779166 -0.000000 5.973817
LeftHandThumb1 -26.253704 0.000000 33.147579
Head -13.574431 -8.710127 17.504263
562
root 0.679197 29.555332 -7.289466 57.259114 1.675730 10.818258
RightUpLeg -57.829400 -43.998198 -0.750067
RightLeg -6.539044 -0.000000 0.000000
RightFoot 2.332597 0.059507 45.551404
RightToeBase 17.706981 -0.000000 -0.000000
LeftUpLeg -58.063872 17.013810 -4.906577
LeftLeg -2.575839 -0.000000 0.000000
LeftFoot 1.886786 1.311115 -21.171342
LeftToeBase 8.536579 -0.000000 -0.000000
Spine -40.731530 11.894990 6.538809
RightShoulder -19.428038 16.927802 -37.412561
RightArm 2.339915 -10.619583 51.052436
RightForeArm 5.400024 0.000000 -1.985351
RightHand 12.859625 -0.000000 -3.288155
RightHandThumb1 -24.326973 -0.000000 -32.862282
LeftShoulder -14.125646 6.278020 43.549670
LeftArm 15.353289 -16.241746 -51.017566
LeftForeArm 10.414741 -0.000000 -1.516218
LeftHand -22.754383 0.000000 6.323763
LeftHandThumb1 -26.253704 0.000000 33.147579
Head -13.844586 -8.707227 17.598209
563
root 0.687192 29.554614 -7.298012 57.372939 1.641234 10.873943
RightUpLeg -57.986764 -44.014757 -0.760296
RightLeg -6.503965 -0.000000 0.000000
RightFoot 2.310465 0.028519 45.547849
RightToeBase 17.725169 -0.000000 -0.000000
LeftUpLeg -58.147775 16.920190 -4.929927
LeftLeg -2.611184 -0.000000 0.000000
LeftFoot 1.886134 1.398723 -21.165171
LeftToeBase 8.528240 -0.000000 -0.000000
Spine -40.653160 12.004578 6.665430
RightShoulder -19.465700 16.987713 -37.368801
RightArm 2.347054 -10.746946 50.982086
RightForeArm 5.436240 -0.000000 -2.087128
RightHand 12.813326 -0.000000 -3.359582
RightHandThumb1 -24.326973 -0.000000 -32.862282
LeftShoulder -14.159733 6.335856 43.581458
LeftArm 15.227858 -16.209647 -51.098513
LeftForeArm 10.539002 -0.000000 -1.319720
LeftHand -22.909136 -0.000000 6.562513
LeftHandThumb1 -26.253704 0.000000 33.147579
Head -14.032379 -8.617070 17.629679
564
root 0.696163 29.555063 -7.305674 57.483922 1.610846 10.937881
RightUpLeg -58.127486 -44.035899 -0.793683
RightLeg -6.467111 -0.000000 0.000000
RightFoot 2.288142 -0.022610 45.576236
RightToeBase 17.684107 -0.000000 -0.000000
LeftUpLeg -58.232914 16.831243 -4.975180
LeftLeg -2.649229 -0.000000 0.000000
LeftFoot 1.856326 1.463179 -21.397746
LeftToeBase 8.733366 -0.000000 -0.000000
Spine -40.576014 12.135423 6.778195
RightShoulder -19.510835 16.973356 -37.300545
RightArm 2.394852 -10.770819 50.882854
RightForeArm 5.381966 -0.000000 -2.184820
RightHand 12.825929 -0.000000 -3.364772
RightHandThumb1 -24.326973 -0.000000 -32.862282
LeftShoulder -14.246958 6.508954 43.543160
LeftArm 15.284415 -16.234847 -51.206368
LeftForeArm 10.525071 -0.000000 -1.160875
LeftHand -22.910290 -0.000000 6.958782
LeftHandThumb1 -26.253704 0.000000 33.147579
Head -14.299195 -8.622770 17.702451
